<?xml version="1.0" encoding="UTF-8" standalone="no"?>
<svg
   xmlns:dc="http://purl.org/dc/elements/1.1/"
   xmlns:cc="http://creativecommons.org/ns#"
   xmlns:rdf="http://www.w3.org/1999/02/22-rdf-syntax-ns#"
   xmlns:svg="http://www.w3.org/2000/svg"
   xmlns="http://www.w3.org/2000/svg"
   xmlns:sodipodi="http://sodipodi.sourceforge.net/DTD/sodipodi-0.dtd"
   xmlns:inkscape="http://www.inkscape.org/namespaces/inkscape"
   width="1024pt"
   height="768pt"
   viewBox="0 0 1024 768"
   version="1.1"
   id="svg2"
   sodipodi:version="0.32"
   inkscape:version="0.46"
   sodipodi:docname="purple_tentacle.svg"
   inkscape:output_extension="org.inkscape.output.svg.inkscape">
  <metadata
     id="metadata179">
    <rdf:RDF>
      <cc:Work
         rdf:about="">
        <dc:format>image/svg+xml</dc:format>
        <dc:type
           rdf:resource="http://purl.org/dc/dcmitype/StillImage" />
      </cc:Work>
    </rdf:RDF>
  </metadata>
  <defs
     id="defs177">
    <inkscape:perspective
       sodipodi:type="inkscape:persp3d"
       inkscape:vp_x="0 : 480 : 1"
       inkscape:vp_y="0 : 1000 : 0"
       inkscape:vp_z="1280 : 480 : 1"
       inkscape:persp3d-origin="640 : 320 : 1"
       id="perspective181" />
  </defs>
  <sodipodi:namedview
     inkscape:window-height="975"
     inkscape:window-width="1680"
     inkscape:pageshadow="2"
     inkscape:pageopacity="0.0"
     guidetolerance="10.0"
     gridtolerance="10.0"
     objecttolerance="10.0"
     borderopacity="1.0"
     bordercolor="#666666"
     pagecolor="#ffffff"
     id="base"
     showgrid="false"
     inkscape:zoom="0.425"
     inkscape:cx="640"
     inkscape:cy="480"
     inkscape:window-x="0"
     inkscape:window-y="25"
     inkscape:current-layer="svg2" />
  <path
     fill="#680677"
     stroke="#680677"
     stroke-width="0.09375"
     opacity="1.00"
     d=" M 397.8 81.6 C 403.0 79.5 408.6 79.9 414.0 80.0 C 419.0 80.1 423.7 81.9 428.3 83.7 C 440.4 89.2 451.3 97.1 461.5 105.5 C 465.2 108.7 469.0 111.6 472.3 115.3 C 471.6 115.4 470.2 115.5 469.5 115.6 C 468.5 114.4 467.0 114.1 465.7 113.4 C 461.2 108.5 455.5 105.0 450.5 100.6 C 446.1 96.8 440.7 94.4 435.9 91.2 C 429.4 86.8 421.8 84.1 414.0 82.8 C 407.1 81.9 400.2 84.1 393.9 86.8 C 384.4 91.9 377.1 100.5 371.7 109.8 C 370.9 109.9 369.1 110.0 368.3 110.0 C 374.8 97.8 384.5 86.3 397.8 81.6 Z"
     id="path46" />
  <path
     fill="#83148c"
     stroke="#83148c"
     stroke-width="0.09375"
     opacity="1.00"
     d=" M 393.9 86.8 C 400.2 84.1 407.1 81.9 414.0 82.8 C 421.8 84.1 429.4 86.8 435.9 91.2 C 440.7 94.4 446.1 96.8 450.5 100.6 C 455.5 105.0 461.2 108.5 465.7 113.4 C 467.0 114.1 468.5 114.4 469.5 115.6 C 458.5 117.3 450.1 125.4 439.7 128.8 C 431.5 132.1 422.4 131.7 413.8 130.5 C 419.5 130.5 425.1 128.7 430.4 126.5 C 436.5 123.9 440.0 117.3 440.6 110.9 C 441.1 104.2 436.7 98.0 430.9 95.0 C 419.7 88.8 406.5 87.5 393.9 86.8 Z"
     id="path50" />
  <path
     fill="#680677"
     stroke="#680677"
     stroke-width="0.09375"
     opacity="1.00"
     d=" M 569.1 86.0 C 574.1 83.8 580.2 82.7 585.1 85.6 C 592.0 89.9 595.4 97.7 598.4 104.9 C 606.3 125.8 608.8 148.2 611.8 170.2 C 612.4 174.9 612.8 179.7 613.4 184.5 C 614.3 193.3 615.2 202.2 616.0 211.0 C 618.6 239.6 619.7 268.3 620.1 297.0 C 619.8 299.7 622.1 301.6 623.5 303.6 C 625.6 306.4 627.7 309.3 629.8 312.1 C 645.8 334.4 661.3 357.1 675.6 380.6 C 684.3 394.1 692.4 407.9 700.5 421.8 C 704.4 426.8 706.3 433.0 709.7 438.4 C 711.2 441.0 712.6 443.8 714.2 446.4 C 728.8 473.7 742.5 501.5 755.5 529.6 C 765.7 552.5 776.1 575.3 785.1 598.7 C 783.9 598.4 782.7 598.1 781.5 597.8 C 780.9 596.0 780.5 594.1 779.7 592.3 C 776.0 585.7 773.9 578.4 770.4 571.6 C 766.2 560.1 760.3 549.4 756.1 537.9 C 745.7 515.8 735.3 493.7 724.0 472.1 C 720.0 462.7 713.9 454.4 710.0 444.9 C 709.1 442.1 707.1 440.1 705.6 437.7 C 701.5 429.8 697.2 422.1 692.5 414.6 C 687.4 405.4 682.3 396.3 676.3 387.6 C 671.0 378.4 665.3 369.4 659.3 360.7 C 648.2 343.6 636.9 326.7 624.5 310.5 C 619.2 302.3 612.6 295.0 607.4 286.6 C 596.3 271.8 585.9 256.3 573.2 242.7 C 571.1 240.2 568.2 238.3 566.6 235.4 C 565.6 233.7 568.1 232.6 569.1 233.8 C 573.8 238.1 577.8 243.2 582.1 247.9 C 584.5 250.5 588.1 252.9 591.7 251.6 C 596.9 249.0 598.6 243.1 599.9 238.0 C 607.0 206.5 604.3 174.0 604.6 142.0 C 602.0 127.0 598.9 111.7 591.9 98.0 C 590.0 94.7 587.7 91.2 584.1 89.4 C 581.0 86.3 576.1 86.7 572.3 88.2 C 567.0 89.8 562.8 94.5 562.0 100.0 C 559.6 110.1 563.7 120.1 564.4 130.1 C 565.8 141.7 563.5 153.7 557.9 163.9 C 555.6 168.3 552.0 171.7 549.1 175.7 C 543.8 178.7 539.0 183.0 533.0 184.7 C 529.6 183.6 528.1 179.7 525.9 177.0 C 519.3 170.0 513.6 162.1 506.9 155.1 C 500.9 147.8 494.2 141.1 487.5 134.5 C 482.2 133.6 476.4 134.5 471.6 136.9 C 468.7 135.6 465.7 134.7 463.0 133.1 C 470.4 130.6 478.1 128.9 485.7 127.3 C 486.0 127.7 486.5 128.3 486.7 128.6 C 502.9 145.5 518.4 163.1 533.1 181.3 C 539.2 178.9 544.8 175.0 549.3 170.2 C 557.0 162.2 560.7 151.0 561.6 140.0 C 562.8 127.2 556.6 114.8 558.6 101.9 C 559.2 95.3 562.8 88.7 569.1 86.0 Z"
     id="path52" />
  <path
     fill="#ac39ae"
     stroke="#ac39ae"
     stroke-width="0.09375"
     opacity="1.00"
     d=" M 371.7 109.8 C 377.1 100.5 384.4 91.9 393.9 86.8 C 406.5 87.5 419.7 88.8 430.9 95.0 C 436.7 98.0 441.1 104.2 440.6 110.9 C 440.0 117.3 436.5 123.9 430.4 126.5 C 425.1 128.7 419.5 130.5 413.8 130.5 C 408.4 129.3 402.8 128.0 398.1 124.8 C 391.5 121.0 386.5 114.9 379.7 111.4 C 377.2 110.0 374.4 109.9 371.7 109.8 Z"
     id="path54" />
  <path
     fill="#ac39ae"
     stroke="#ac39ae"
     stroke-width="0.09375"
     opacity="1.00"
     d=" M 572.3 88.2 C 576.1 86.7 581.0 86.3 584.1 89.4 C 584.4 93.4 586.2 96.9 587.4 100.6 C 594.0 121.7 594.8 144.3 591.3 166.0 C 589.7 175.9 587.8 185.9 584.3 195.3 C 581.8 201.7 576.6 208.6 568.9 208.3 C 560.4 207.8 552.0 201.5 550.1 192.9 C 548.3 187.3 549.4 181.4 549.1 175.7 C 552.0 171.7 555.6 168.3 557.9 163.9 C 563.5 153.7 565.8 141.7 564.4 130.1 C 563.7 120.1 559.6 110.1 562.0 100.0 C 562.8 94.5 567.0 89.8 572.3 88.2 Z"
     id="path56" />
  <path
     fill="#83148c"
     stroke="#83148c"
     stroke-width="0.09375"
     opacity="1.00"
     d=" M 584.1 89.4 C 587.7 91.2 590.0 94.7 591.9 98.0 C 598.9 111.7 602.0 127.0 604.6 142.0 C 604.3 174.0 607.0 206.5 599.9 238.0 C 598.6 243.1 596.9 249.0 591.7 251.6 C 588.1 252.9 584.5 250.5 582.1 247.9 C 577.8 243.2 573.8 238.1 569.1 233.8 C 568.1 232.6 565.6 233.7 566.6 235.4 C 568.2 238.3 571.1 240.2 573.2 242.7 C 585.9 256.3 596.3 271.8 607.4 286.6 C 612.6 295.0 619.2 302.3 624.5 310.5 C 636.9 326.7 648.2 343.6 659.3 360.7 C 665.3 369.4 671.0 378.4 676.3 387.6 C 682.3 396.3 687.4 405.4 692.5 414.6 C 697.2 422.1 701.5 429.8 705.6 437.7 C 707.1 440.1 709.1 442.1 710.0 444.9 C 713.9 454.4 720.0 462.7 724.0 472.1 C 735.3 493.7 745.7 515.8 756.1 537.9 C 760.3 549.4 766.2 560.1 770.4 571.6 C 773.9 578.4 776.0 585.7 779.7 592.3 C 780.5 594.1 780.9 596.0 781.5 597.8 C 763.1 592.8 744.0 590.7 725.1 588.6 C 687.1 585.1 648.9 584.3 610.7 584.3 C 623.1 575.6 633.8 564.4 641.0 551.0 C 650.3 533.9 652.7 514.1 652.3 495.0 C 652.3 479.5 647.1 463.9 637.0 451.9 C 633.4 447.3 628.9 443.4 624.4 439.7 C 625.7 429.8 622.4 420.1 618.8 411.1 C 611.9 394.7 599.6 380.8 584.4 371.7 C 574.2 365.2 562.8 360.6 551.3 357.1 C 552.4 354.6 555.0 353.6 557.1 352.1 C 564.9 346.3 571.4 338.9 577.2 331.1 C 581.5 324.5 585.0 317.1 585.2 309.0 C 585.2 297.3 581.5 285.3 573.4 276.6 C 569.4 272.5 565.1 268.3 559.4 266.7 C 558.6 254.5 554.3 242.2 545.8 233.2 C 534.4 220.5 517.2 214.6 500.7 212.4 C 500.7 211.9 500.6 210.9 500.6 210.4 C 503.1 207.1 505.0 203.4 506.3 199.5 C 509.7 184.9 502.9 168.5 489.9 160.9 C 487.9 150.5 480.6 142.0 471.6 136.9 C 476.4 134.5 482.2 133.6 487.5 134.5 C 494.2 141.1 500.9 147.8 506.9 155.1 C 513.6 162.1 519.3 170.0 525.9 177.0 C 528.1 179.7 529.6 183.6 533.0 184.7 C 539.0 183.0 543.8 178.7 549.1 175.7 C 549.4 181.4 548.3 187.3 550.1 192.9 C 552.0 201.5 560.4 207.8 568.9 208.3 C 576.6 208.6 581.8 201.7 584.3 195.3 C 587.8 185.9 589.7 175.9 591.3 166.0 C 594.8 144.3 594.0 121.7 587.4 100.6 C 586.2 96.9 584.4 93.4 584.1 89.4 Z"
     id="path60" />
  <path
     fill="#000e00"
     stroke="#000e00"
     stroke-width="0.09375"
     opacity="1.00"
     d=" M 346.1 127.0 C 351.1 119.0 358.8 112.1 368.3 110.0 C 369.1 110.0 370.9 109.9 371.7 109.8 C 374.4 109.9 377.2 110.0 379.7 111.4 C 386.5 114.9 391.5 121.0 398.1 124.8 C 402.8 128.0 408.4 129.3 413.8 130.5 C 422.4 131.7 431.5 132.1 439.7 128.8 C 450.1 125.4 458.5 117.3 469.5 115.6 C 470.2 115.5 471.6 115.4 472.3 115.3 C 477.9 115.4 483.8 114.7 489.2 116.9 C 492.1 117.8 492.9 121.5 491.8 124.0 C 491.1 126.6 488.0 126.8 486.0 127.6 L 486.7 128.6 C 486.5 128.3 486.0 127.7 485.7 127.3 C 478.1 128.9 470.4 130.6 463.0 133.1 C 461.3 133.7 459.7 134.5 458.2 135.6 C 456.5 137.4 454.8 139.3 452.6 140.7 C 451.0 141.6 449.4 142.4 447.6 143.1 C 436.4 145.3 424.8 145.5 413.5 144.4 C 411.5 144.1 409.5 143.8 407.5 143.4 C 403.5 142.5 399.6 141.5 396.0 139.7 C 394.3 138.9 392.7 138.1 391.1 137.2 C 383.9 132.6 378.5 123.5 368.8 124.4 C 363.6 128.8 359.8 134.4 355.4 139.5 C 353.5 141.1 351.9 143.7 349.1 143.5 C 346.7 143.5 344.3 141.9 343.6 139.5 C 342.6 135.3 343.7 130.7 346.1 127.0 Z"
     id="path70" />
  <path
     fill="#680677"
     stroke="#680677"
     stroke-width="0.09375"
     opacity="1.00"
     d=" M 355.4 139.5 C 359.8 134.4 363.6 128.8 368.8 124.4 C 378.5 123.5 383.9 132.6 391.1 137.2 C 387.3 138.7 383.4 140.1 379.7 142.0 C 375.5 138.0 368.5 135.7 363.3 139.2 C 360.9 141.1 357.6 142.8 357.0 146.0 C 350.0 172.7 341.6 199.2 328.6 223.6 C 320.7 237.8 311.6 251.6 299.5 262.6 C 276.8 282.9 254.4 304.0 237.8 329.7 C 232.6 338.5 227.8 348.5 228.9 359.0 C 229.4 363.5 230.2 368.3 233.1 371.9 C 236.2 374.4 240.9 375.9 244.7 373.8 C 249.2 371.5 251.6 366.8 253.6 362.4 C 258.0 355.5 264.1 349.7 270.5 344.6 C 280.5 336.9 291.1 330.0 302.4 324.5 C 306.3 308.4 309.9 292.3 313.4 276.2 C 313.6 275.0 316.0 274.3 316.3 275.9 C 316.4 277.3 316.2 278.7 315.9 280.0 C 310.3 305.9 304.1 331.5 297.2 357.0 C 292.9 370.6 289.4 384.4 285.0 398.0 C 275.6 429.9 264.3 461.3 253.8 492.9 C 248.2 508.7 242.2 524.5 236.5 540.3 C 228.0 562.6 220.1 585.0 211.0 607.1 C 202.5 630.2 192.6 652.8 184.0 675.9 C 182.6 676.3 181.2 676.5 179.7 676.5 C 184.6 666.4 188.1 655.8 192.5 645.5 C 203.9 616.6 215.5 587.8 226.1 558.6 C 230.3 548.3 233.9 537.8 237.8 527.3 C 245.0 508.3 251.7 489.1 258.3 469.9 C 265.8 447.0 273.9 424.4 280.7 401.3 C 285.1 386.9 289.2 372.5 293.5 358.0 C 293.6 356.8 294.9 354.5 292.9 354.2 C 279.9 349.5 264.8 354.7 256.2 365.2 C 253.3 370.2 249.9 375.7 244.0 377.4 C 238.0 379.1 230.0 376.4 228.3 369.9 C 224.0 359.6 225.1 347.8 229.8 337.9 C 237.1 322.4 248.4 309.3 259.8 296.7 C 268.5 287.1 277.8 278.1 287.4 269.4 C 292.1 264.7 297.4 260.7 301.9 255.8 C 308.7 248.8 314.4 240.8 319.6 232.6 C 326.8 220.5 333.3 208.0 338.1 194.8 C 345.4 176.9 350.5 158.2 355.4 139.5 Z"
     id="path76" />
  <path
     fill="#016d01"
     stroke="#016d01"
     stroke-width="0.09375"
     opacity="1.00"
     d=" M 458.2 135.6 C 459.7 134.5 461.3 133.7 463.0 133.1 C 465.7 134.7 468.7 135.6 471.6 136.9 C 480.6 142.0 487.9 150.5 489.9 160.9 C 491.5 167.6 490.5 174.8 488.2 181.3 C 486.4 186.6 482.7 190.9 479.1 195.0 C 481.0 200.0 482.4 205.5 480.3 210.7 C 487.1 210.7 493.9 211.6 500.7 212.4 C 517.2 214.6 534.4 220.5 545.8 233.2 C 554.3 242.2 558.6 254.5 559.4 266.7 C 560.4 280.1 557.8 294.1 549.6 305.0 C 551.3 323.4 540.0 340.5 526.0 351.4 C 534.5 352.8 543.0 354.6 551.3 357.1 C 562.8 360.6 574.2 365.2 584.4 371.7 C 599.6 380.8 611.9 394.7 618.8 411.1 C 622.4 420.1 625.7 429.8 624.4 439.7 C 623.2 452.2 621.4 464.7 618.9 477.0 C 613.1 504.7 597.6 530.9 573.9 546.7 C 557.6 557.4 538.8 563.4 519.6 566.5 C 499.9 569.8 479.8 569.9 459.9 568.6 C 440.9 567.3 421.9 564.0 404.3 556.6 C 387.1 549.2 372.1 535.5 365.7 517.6 C 364.8 515.4 364.7 512.7 362.5 511.3 C 347.4 497.9 337.9 479.3 333.6 459.8 C 330.0 442.2 333.1 423.4 341.5 407.6 C 350.5 390.7 365.9 378.3 382.7 369.7 C 395.1 363.7 408.2 359.2 421.5 355.9 C 417.8 353.3 413.5 351.7 409.6 349.3 C 401.6 344.2 394.2 338.2 388.1 331.0 C 385.7 328.5 383.4 325.5 383.4 321.9 C 383.3 320.5 384.0 318.6 382.4 317.7 C 374.1 311.2 367.7 302.4 363.8 292.5 C 362.4 288.4 360.8 284.3 360.5 280.0 C 361.1 269.6 364.5 259.3 370.8 250.9 C 374.9 245.4 380.0 240.8 385.5 236.8 C 391.0 232.9 396.9 229.5 403.0 226.6 C 401.1 224.9 398.3 224.9 395.9 223.9 C 386.6 221.0 376.4 216.7 371.7 207.5 C 369.7 203.3 370.3 198.7 373.0 195.0 C 369.5 191.1 366.7 186.5 364.6 181.7 C 361.9 175.2 359.4 168.1 361.4 161.1 C 363.9 152.2 371.8 146.0 379.7 142.0 C 383.4 140.1 387.3 138.7 391.1 137.2 C 392.7 138.1 394.3 138.9 396.0 139.7 C 392.3 139.5 389.0 141.4 385.7 142.6 C 377.5 146.3 368.5 151.2 365.1 160.1 C 361.7 168.9 366.1 178.1 370.3 185.7 C 376.9 198.2 390.2 205.8 403.7 208.5 C 421.2 212.6 439.4 209.8 456.2 204.3 C 465.3 200.9 474.6 196.4 480.5 188.4 C 487.6 179.2 490.0 165.9 484.7 155.2 C 480.1 144.6 469.3 137.7 458.2 135.6 Z"
     id="path78" />
  <path
     fill="#00cf39"
     stroke="#00cf39"
     stroke-width="0.09375"
     opacity="1.00"
     d=" M 452.6 140.7 C 454.8 139.3 456.5 137.4 458.2 135.6 C 469.3 137.7 480.1 144.6 484.7 155.2 C 490.0 165.9 487.6 179.2 480.5 188.4 C 474.6 196.4 465.3 200.9 456.2 204.3 C 439.4 209.8 421.2 212.6 403.7 208.5 C 390.2 205.8 376.9 198.2 370.3 185.7 C 366.1 178.1 361.7 168.9 365.1 160.1 C 368.5 151.2 377.5 146.3 385.7 142.6 C 389.0 141.4 392.3 139.5 396.0 139.7 C 399.6 141.5 403.5 142.5 407.5 143.4 C 404.8 145.5 401.3 145.9 398.4 147.6 C 391.5 151.1 384.5 155.8 381.4 163.2 C 380.1 166.7 379.2 170.8 380.6 174.4 C 384.3 182.8 391.3 189.6 399.7 193.3 C 411.7 198.4 425.3 198.1 438.0 196.1 C 448.5 194.4 459.5 191.8 468.0 184.9 C 476.0 178.7 478.9 167.7 477.5 157.9 C 475.7 149.7 467.4 145.3 460.0 143.0 C 457.6 142.0 454.7 142.3 452.6 140.7 Z"
     id="path80" />
  <path
     fill="#ac39ae"
     stroke="#ac39ae"
     stroke-width="0.09375"
     opacity="1.00"
     d=" M 363.3 139.2 C 368.5 135.7 375.5 138.0 379.7 142.0 C 371.8 146.0 363.9 152.2 361.4 161.1 C 359.4 168.1 361.9 175.2 364.6 181.7 C 357.6 187.3 353.1 195.9 352.7 205.0 C 352.7 210.4 354.6 215.8 358.2 219.9 C 365.1 228.4 375.7 232.6 385.5 236.8 C 380.0 240.8 374.9 245.4 370.8 250.9 C 364.5 259.3 361.1 269.6 360.5 280.0 C 360.8 284.3 362.4 288.4 363.8 292.5 C 357.2 299.1 353.4 308.0 350.9 316.9 C 347.9 326.7 348.6 337.9 354.4 346.6 C 360.9 355.8 370.3 362.7 380.3 367.8 C 381.2 368.3 382.0 369.0 382.7 369.7 C 365.9 378.3 350.5 390.7 341.5 407.6 C 333.1 423.4 330.0 442.2 333.6 459.8 C 323.1 477.0 318.6 497.2 316.9 517.0 C 316.1 530.5 320.1 544.1 327.9 555.0 C 336.9 567.8 350.2 576.9 364.0 584.0 C 380.5 592.5 398.5 597.4 416.3 602.2 C 400.1 605.3 384.0 609.0 368.0 613.0 C 345.9 618.1 324.4 625.5 302.9 632.7 C 276.5 642.3 250.6 653.9 226.5 668.4 C 225.4 668.9 224.3 669.3 223.1 669.5 C 210.1 671.7 197.0 673.7 184.0 675.9 C 192.6 652.8 202.5 630.2 211.0 607.1 C 220.1 585.0 228.0 562.6 236.5 540.3 C 242.2 524.5 248.2 508.7 253.8 492.9 C 264.3 461.3 275.6 429.9 285.0 398.0 C 289.4 384.4 292.9 370.6 297.2 357.0 C 304.1 331.5 310.3 305.9 315.9 280.0 C 316.2 278.7 316.4 277.3 316.3 275.9 C 316.0 274.3 313.6 275.0 313.4 276.2 C 309.9 292.3 306.3 308.4 302.4 324.5 C 291.1 330.0 280.5 336.9 270.5 344.6 C 264.1 349.7 258.0 355.5 253.6 362.4 C 251.6 366.8 249.2 371.5 244.7 373.8 C 240.9 375.9 236.2 374.4 233.1 371.9 C 230.2 368.3 229.4 363.5 228.9 359.0 C 227.8 348.5 232.6 338.5 237.8 329.7 C 254.4 304.0 276.8 282.9 299.5 262.6 C 311.6 251.6 320.7 237.8 328.6 223.6 C 341.6 199.2 350.0 172.7 357.0 146.0 C 357.6 142.8 360.9 141.1 363.3 139.2 Z"
     id="path82" />
  <path
     fill="#016d01"
     stroke="#016d01"
     stroke-width="0.09375"
     opacity="1.00"
     d=" M 447.6 143.1 C 449.4 142.4 451.0 141.6 452.6 140.7 C 454.7 142.3 457.6 142.0 460.0 143.0 C 467.4 145.3 475.7 149.7 477.5 157.9 C 478.9 167.7 476.0 178.7 468.0 184.9 C 459.5 191.8 448.5 194.4 438.0 196.1 C 425.3 198.1 411.7 198.4 399.7 193.3 C 391.3 189.6 384.3 182.8 380.6 174.4 C 379.2 170.8 380.1 166.7 381.4 163.2 C 384.5 155.8 391.5 151.1 398.4 147.6 C 401.3 145.9 404.8 145.5 407.5 143.4 C 409.5 143.8 411.5 144.1 413.5 144.4 C 412.0 146.7 408.8 146.1 406.6 147.5 C 397.8 151.4 387.0 155.7 383.9 165.9 C 381.0 173.1 386.7 179.8 391.6 184.3 C 400.2 191.6 411.8 194.8 423.0 194.2 C 431.0 194.3 438.9 192.7 446.8 191.4 C 452.8 188.9 459.3 187.5 464.6 183.6 C 468.8 180.1 472.5 175.6 473.5 170.1 C 475.2 164.4 475.6 157.4 471.3 152.7 C 464.9 146.7 455.9 145.1 447.6 143.1 Z"
     id="path84" />
  <path
     fill="#0f3401"
     stroke="#0f3401"
     stroke-width="0.09375"
     opacity="1.00"
     d=" M 413.5 144.4 C 424.8 145.5 436.4 145.3 447.6 143.1 C 455.9 145.1 464.9 146.7 471.3 152.7 C 475.6 157.4 475.2 164.4 473.5 170.1 C 463.7 158.9 448.9 152.4 433.9 152.7 C 422.4 153.1 410.3 154.8 400.7 161.7 C 397.4 164.5 394.2 167.7 392.7 171.9 C 391.2 175.8 391.7 180.1 391.6 184.3 C 386.7 179.8 381.0 173.1 383.9 165.9 C 387.0 155.7 397.8 151.4 406.6 147.5 C 408.8 146.1 412.0 146.7 413.5 144.4 Z"
     id="path86" />
  <path
     fill="#008d00"
     stroke="#008d00"
     stroke-width="0.09375"
     opacity="1.00"
     d=" M 400.7 161.7 C 410.3 154.8 422.4 153.1 433.9 152.7 C 448.9 152.4 463.7 158.9 473.5 170.1 C 472.5 175.6 468.8 180.1 464.6 183.6 C 459.3 187.5 452.8 188.9 446.8 191.4 C 438.9 192.7 431.0 194.3 423.0 194.2 C 411.8 194.8 400.2 191.6 391.6 184.3 C 391.7 180.1 391.2 175.8 392.7 171.9 C 394.2 167.7 397.4 164.5 400.7 161.7 Z"
     id="path88" />
  <path
     fill="#680677"
     stroke="#680677"
     stroke-width="0.09375"
     opacity="1.00"
     d=" M 489.9 160.9 C 502.9 168.5 509.7 184.9 506.3 199.5 C 505.0 203.4 503.1 207.1 500.6 210.4 C 500.6 210.9 500.7 211.9 500.7 212.4 C 493.9 211.6 487.1 210.7 480.3 210.7 C 482.4 205.5 481.0 200.0 479.1 195.0 C 482.7 190.9 486.4 186.6 488.2 181.3 C 490.5 174.8 491.5 167.6 489.9 160.9 Z"
     id="path94" />
  <path
     fill="#680677"
     stroke="#680677"
     stroke-width="0.09375"
     opacity="1.00"
     d=" M 364.6 181.7 C 366.7 186.5 369.5 191.1 373.0 195.0 C 370.3 198.7 369.7 203.3 371.7 207.5 C 376.4 216.7 386.6 221.0 395.9 223.9 C 398.3 224.9 401.1 224.9 403.0 226.6 C 396.9 229.5 391.0 232.9 385.5 236.8 C 375.7 232.6 365.1 228.4 358.2 219.9 C 354.6 215.8 352.7 210.4 352.7 205.0 C 353.1 195.9 357.6 187.3 364.6 181.7 Z"
     id="path96" />
  <path
     fill="#00cf39"
     stroke="#00cf39"
     stroke-width="0.09375"
     opacity="1.00"
     d=" M 461.1 214.3 C 475.4 213.1 489.8 213.9 504.0 215.9 C 514.3 218.3 524.9 221.1 533.7 227.4 C 542.9 233.2 550.1 242.3 553.4 252.7 C 557.9 265.8 557.5 280.6 552.5 293.4 C 547.6 305.4 537.7 314.7 526.3 320.5 C 510.2 329.2 491.9 332.6 474.0 335.3 C 455.2 336.3 436.2 334.9 417.9 330.8 C 407.9 328.0 398.4 323.5 389.3 318.6 C 377.3 310.9 368.2 298.8 364.7 285.0 C 362.6 280.1 364.5 274.9 365.4 269.9 C 368.1 257.5 376.8 247.4 386.7 239.8 C 401.9 228.8 419.8 222.6 437.9 218.5 C 445.6 216.8 453.3 215.1 461.1 214.3 Z"
     id="path100" />
  <path
     fill="#016d01"
     stroke="#016d01"
     stroke-width="0.09375"
     opacity="1.00"
     d=" M 456.5 228.6 C 465.9 227.7 475.5 227.1 485.0 228.0 C 498.5 228.8 512.8 231.7 523.3 240.8 C 530.2 246.4 533.9 255.3 534.4 264.0 C 534.3 272.4 531.4 280.7 526.2 287.2 C 516.4 298.9 501.3 304.1 486.9 307.6 C 466.5 312.1 445.1 313.3 424.5 309.4 C 414.7 307.5 404.8 303.7 398.2 295.9 C 390.2 286.3 389.4 272.3 393.9 261.0 C 397.2 252.3 404.7 246.1 412.5 241.5 C 425.9 233.8 441.3 230.8 456.5 228.6 Z"
     id="path104" />
  <path
     fill="#0f3401"
     stroke="#0f3401"
     stroke-width="0.09375"
     opacity="1.00"
     d=" M 444.7 233.7 C 461.9 230.4 479.6 229.7 496.9 232.5 C 506.3 234.6 516.3 237.7 522.9 245.1 C 531.4 253.2 533.6 266.9 528.2 277.3 C 521.7 266.5 510.2 259.3 498.0 256.8 C 487.9 253.9 477.3 254.6 466.9 254.7 C 448.9 255.9 429.7 259.4 415.4 271.3 C 408.3 276.9 403.9 285.2 401.5 293.8 L 400.9 294.2 C 393.7 285.7 392.5 273.1 396.9 263.0 C 399.3 256.1 404.8 250.9 410.6 246.6 C 417.8 242.0 425.8 238.7 434.0 236.3 C 437.6 235.5 441.2 234.8 444.7 233.7 Z"
     id="path112" />
  <path
     fill="#008d00"
     stroke="#008d00"
     stroke-width="0.09375"
     opacity="1.00"
     d=" M 415.4 271.3 C 429.7 259.4 448.9 255.9 466.9 254.7 C 477.3 254.6 487.9 253.9 498.0 256.8 C 510.2 259.3 521.7 266.5 528.2 277.3 C 527.5 281.1 524.0 283.8 521.8 286.8 C 519.0 290.7 514.5 292.6 511.0 295.7 C 505.7 297.8 500.7 300.8 495.0 302.0 C 479.0 307.4 461.8 308.7 445.0 308.7 C 431.9 307.6 418.1 306.5 406.7 299.4 C 404.6 297.9 402.0 296.5 401.5 293.8 C 403.9 285.2 408.3 276.9 415.4 271.3 Z"
     id="path114" />
  <path
     fill="#680677"
     stroke="#680677"
     stroke-width="0.09375"
     opacity="1.00"
     d=" M 559.4 266.7 C 565.1 268.3 569.4 272.5 573.4 276.6 C 581.5 285.3 585.2 297.3 585.2 309.0 C 585.0 317.1 581.5 324.5 577.2 331.1 C 571.4 338.9 564.9 346.3 557.1 352.1 C 555.0 353.6 552.4 354.6 551.3 357.1 C 543.0 354.6 534.5 352.8 526.0 351.4 C 540.0 340.5 551.3 323.4 549.6 305.0 C 557.8 294.1 560.4 280.1 559.4 266.7 Z"
     id="path116" />
  <path
     fill="#680677"
     stroke="#680677"
     stroke-width="0.09375"
     opacity="1.00"
     d=" M 350.9 316.9 C 353.4 308.0 357.2 299.1 363.8 292.5 C 367.7 302.4 374.1 311.2 382.4 317.7 C 384.0 318.6 383.3 320.5 383.4 321.9 C 383.4 325.5 385.7 328.5 388.1 331.0 C 394.2 338.2 401.6 344.2 409.6 349.3 C 413.5 351.7 417.8 353.3 421.5 355.9 C 408.2 359.2 395.1 363.7 382.7 369.7 C 382.0 369.0 381.2 368.3 380.3 367.8 C 370.3 362.7 360.9 355.8 354.4 346.6 C 348.6 337.9 347.9 326.7 350.9 316.9 Z"
     id="path124" />
  <path
     fill="#00cf39"
     stroke="#00cf39"
     stroke-width="0.09375"
     opacity="1.00"
     d=" M 464.4 351.6 C 473.9 350.4 483.5 350.5 493.0 351.2 C 505.4 351.4 517.8 353.3 530.0 355.3 C 550.8 359.1 571.4 365.9 588.6 378.4 C 605.8 390.8 617.8 410.1 621.4 431.0 C 621.5 447.5 618.8 464.4 611.5 479.3 C 606.4 490.2 598.7 499.8 589.5 507.6 C 577.0 517.8 562.3 525.1 546.9 529.8 C 531.1 535.0 514.5 537.4 498.0 539.1 C 478.6 541.0 459.0 540.9 439.7 538.6 C 420.5 536.3 401.4 531.7 384.4 522.5 C 370.3 515.0 357.8 504.2 349.4 490.5 C 344.6 482.8 341.1 474.4 338.4 465.7 C 336.8 459.3 334.7 452.7 335.3 445.9 C 335.1 433.4 338.3 421.1 343.9 409.9 C 353.7 391.4 371.2 378.4 389.9 369.8 C 413.5 359.6 439.0 354.3 464.4 351.6 Z"
     id="path130" />
  <path
     fill="#016d01"
     stroke="#016d01"
     stroke-width="0.09375"
     opacity="1.00"
     d=" M 488.4 367.6 C 501.6 366.0 515.0 367.2 528.1 369.2 C 545.3 372.3 562.9 377.9 575.9 390.1 C 584.2 397.8 589.9 408.1 592.6 419.0 C 593.7 424.8 595.9 430.9 593.7 436.8 C 590.1 453.2 581.3 468.5 568.7 479.6 C 555.4 491.1 538.8 498.1 521.8 501.8 C 510.7 504.6 499.3 505.7 487.9 506.4 C 480.9 506.9 474.0 505.8 467.1 505.4 C 444.2 502.9 420.9 499.8 399.7 490.3 C 387.5 484.9 376.0 476.5 369.6 464.4 C 363.8 452.9 363.8 439.0 368.0 426.9 C 372.4 414.0 382.1 403.7 393.4 396.4 C 409.8 385.3 428.9 379.3 447.9 374.7 C 461.3 371.5 474.8 369.4 488.4 367.6 Z"
     id="path134" />
  <path
     fill="#0f3401"
     stroke="#0f3401"
     stroke-width="0.09375"
     opacity="1.00"
     d=" M 483.7 371.5 C 492.3 369.4 501.2 370.3 510.0 370.4 C 529.3 371.9 549.2 375.5 565.7 386.2 C 581.0 396.1 590.5 413.6 591.4 431.7 C 590.0 438.6 588.3 445.7 585.2 452.2 C 584.9 452.4 584.3 452.9 584.0 453.2 C 583.9 440.4 574.6 430.3 565.0 423.1 C 547.3 411.2 525.9 407.1 505.1 404.9 C 483.6 403.5 461.8 405.6 441.0 411.2 C 424.4 415.5 408.0 423.2 396.2 436.1 C 390.8 441.6 387.3 448.6 384.6 455.7 C 382.3 461.7 381.6 468.6 384.2 474.7 C 384.1 475.3 383.9 476.4 383.9 476.9 C 376.7 470.7 370.9 462.5 369.2 453.1 C 366.4 439.8 369.9 425.7 378.0 414.9 C 383.6 408.3 389.8 401.8 397.5 397.6 C 406.5 391.5 416.7 387.6 426.7 383.6 C 445.3 378.1 464.4 373.7 483.7 371.5 Z"
     id="path140" />
  <path
     fill="#008d00"
     stroke="#008d00"
     stroke-width="0.09375"
     opacity="1.00"
     d=" M 441.0 411.2 C 461.8 405.6 483.6 403.5 505.1 404.9 C 525.9 407.1 547.3 411.2 565.0 423.1 C 574.6 430.3 583.9 440.4 584.0 453.2 C 583.9 454.3 583.6 455.3 583.3 456.3 C 573.8 473.2 558.1 486.5 539.8 492.7 C 533.1 496.2 525.6 497.2 518.6 499.3 C 508.9 502.0 498.9 502.4 489.0 503.7 C 484.0 503.3 478.9 504.3 474.0 502.9 C 455.1 502.0 436.4 498.3 418.0 493.7 C 412.1 492.4 406.9 489.0 401.1 487.6 C 396.2 485.0 391.5 482.1 386.8 479.2 C 385.8 477.7 385.4 476.0 384.2 474.7 C 381.6 468.6 382.3 461.7 384.6 455.7 C 387.3 448.6 390.8 441.6 396.2 436.1 C 408.0 423.2 424.4 415.5 441.0 411.2 Z"
     id="path148" />
  <path
     fill="#680677"
     stroke="#680677"
     stroke-width="0.09375"
     opacity="1.00"
     d=" M 618.9 477.0 C 621.4 464.7 623.2 452.2 624.4 439.7 C 628.9 443.4 633.4 447.3 637.0 451.9 C 647.1 463.9 652.3 479.5 652.3 495.0 C 652.7 514.1 650.3 533.9 641.0 551.0 C 633.8 564.4 623.1 575.6 610.7 584.3 C 588.1 584.4 565.6 584.7 543.0 585.5 C 500.5 589.1 458.2 594.2 416.3 602.2 C 398.5 597.4 380.5 592.5 364.0 584.0 C 350.2 576.9 336.9 567.8 327.9 555.0 C 320.1 544.1 316.1 530.5 316.9 517.0 C 318.6 497.2 323.1 477.0 333.6 459.8 C 337.9 479.3 347.4 497.9 362.5 511.3 C 364.7 512.7 364.8 515.4 365.7 517.6 C 372.1 535.5 387.1 549.2 404.3 556.6 C 421.9 564.0 440.9 567.3 459.9 568.6 C 479.8 569.9 499.9 569.8 519.6 566.5 C 538.8 563.4 557.6 557.4 573.9 546.7 C 597.6 530.9 613.1 504.7 618.9 477.0 Z"
     id="path154" />
  <path
     fill="#016d01"
     stroke="#016d01"
     stroke-width="0.09375"
     opacity="1.00"
     d=" M 543.0 585.5 C 565.6 584.7 588.1 584.4 610.7 584.3 C 648.9 584.3 687.1 585.1 725.1 588.6 C 744.0 590.7 763.1 592.8 781.5 597.8 C 782.7 598.1 783.9 598.4 785.1 598.7 C 788.6 599.6 792.2 600.5 795.5 602.2 C 792.5 602.6 789.5 602.6 786.5 602.7 C 785.1 602.0 783.7 601.3 782.1 601.0 C 773.4 599.0 764.7 597.0 755.9 595.5 C 728.1 591.4 700.1 589.2 672.0 588.4 C 634.3 586.9 596.6 587.2 559.0 588.0 C 543.9 588.1 528.9 589.6 514.0 591.3 C 497.9 592.9 481.9 594.9 466.0 597.1 C 454.4 599.5 442.6 600.2 431.1 602.8 C 395.1 609.0 359.3 617.0 324.7 628.6 C 294.5 637.9 265.2 650.1 237.6 665.4 C 237.0 665.8 235.9 666.7 235.3 667.1 C 236.0 667.2 237.4 667.2 238.1 667.2 C 234.3 667.8 230.4 668.8 226.5 668.4 C 250.6 653.9 276.5 642.3 302.9 632.7 C 324.4 625.5 345.9 618.1 368.0 613.0 C 384.0 609.0 400.1 605.3 416.3 602.2 C 458.2 594.2 500.5 589.1 543.0 585.5 Z"
     id="path168" />
  <path
     d=" M 559.0 588.0 C 596.6 587.2 634.3 586.9 672.0 588.4 C 700.1 589.2 728.1 591.4 755.9 595.5 C 764.7 597.0 773.4 599.0 782.1 601.0 C 783.7 601.3 785.1 602.0 786.5 602.7 C 767.7 604.4 748.8 605.6 730.0 607.2 C 707.0 608.7 684.0 611.2 661.1 612.9 C 637.1 614.9 613.1 617.3 589.1 619.7 C 563.4 622.4 537.7 624.8 512.0 628.0 C 483.9 631.7 455.6 634.7 427.6 639.5 C 406.6 643.2 385.5 645.6 364.4 648.6 C 322.3 654.4 280.2 660.7 238.1 667.2 C 237.4 667.2 236.0 667.2 235.3 667.1 C 235.9 666.7 237.0 665.8 237.6 665.4 C 265.2 650.1 294.5 637.9 324.7 628.6 C 359.3 617.0 395.1 609.0 431.1 602.8 C 442.6 600.2 454.4 599.5 466.0 597.1 C 481.9 594.9 497.9 592.9 514.0 591.3 C 528.9 589.6 543.9 588.1 559.0 588.0 Z"
     id="path170"
     stroke-width="0.09375"
     stroke="#00cf39"
     fill="#00cf39"
     opacity="1.00" />
</svg>
